<svg xmlns="http://www.w3.org/2000/svg" xmlns:xlink="http://www.w3.org/1999/xlink" width="1080" zoomAndPan="magnify" viewBox="0 0 810 809.999993" height="1080" preserveAspectRatio="xMidYMid meet" version="1.0"><defs><clipPath id="e5081eb776"><path d="M 17.8125 17.8125 L 792.1875 17.8125 L 792.1875 792.1875 L 17.8125 792.1875 Z M 17.8125 17.8125 " clip-rule="nonzero"/></clipPath><clipPath id="30ae6f12e9"><path d="M 405 17.8125 C 191.160156 17.8125 17.8125 191.160156 17.8125 405 C 17.8125 618.839844 191.160156 792.1875 405 792.1875 C 618.839844 792.1875 792.1875 618.839844 792.1875 405 C 792.1875 191.160156 618.839844 17.8125 405 17.8125 Z M 405 17.8125 " clip-rule="nonzero"/></clipPath><clipPath id="4a6f4aea07"><path d="M 520 101.863281 L 706.820312 101.863281 L 706.820312 680 L 520 680 Z M 520 101.863281 " clip-rule="nonzero"/></clipPath><clipPath id="606b1b4ac3"><path d="M 103.164062 107 L 294.351562 107 L 294.351562 680.863281 L 103.164062 680.863281 Z M 103.164062 107 " clip-rule="nonzero"/></clipPath><clipPath id="b04ed59067"><path d="M 289.046875 289.046875 L 520.953125 289.046875 L 520.953125 520.953125 L 289.046875 520.953125 Z M 289.046875 289.046875 " clip-rule="nonzero"/></clipPath><clipPath id="3afbe801a1"><path d="M 405 289.046875 C 340.960938 289.046875 289.046875 340.960938 289.046875 405 C 289.046875 469.039062 340.960938 520.953125 405 520.953125 C 469.039062 520.953125 520.953125 469.039062 520.953125 405 C 520.953125 340.960938 469.039062 289.046875 405 289.046875 Z M 405 289.046875 " clip-rule="nonzero"/></clipPath><clipPath id="edd91882a3"><path d="M 306.054688 289.046875 L 503.941406 289.046875 L 503.941406 462.199219 L 306.054688 462.199219 Z M 306.054688 289.046875 " clip-rule="nonzero"/></clipPath><clipPath id="a873937c85"><path d="M 405 289.046875 L 503.945312 462.199219 L 306.054688 462.199219 Z M 405 289.046875 " clip-rule="nonzero"/></clipPath><radialGradient gradientTransform="matrix(1, 0, 0, 1, 306.052251, 289.045118)" gradientUnits="userSpaceOnUse" r="262.949832" cx="0" id="1026df1a3c" cy="0" fx="0" fy="0"><stop stop-opacity="1" stop-color="rgb(18.80188%, 18.800354%, 18.919373%)" offset="0"/><stop stop-opacity="1" stop-color="rgb(18.811035%, 18.804932%, 19.160461%)" offset="0.00390625"/><stop stop-opacity="1" stop-color="rgb(18.818665%, 18.809509%, 19.400024%)" offset="0.0078125"/><stop stop-opacity="1" stop-color="rgb(18.826294%, 18.815613%, 19.641113%)" offset="0.0117188"/><stop stop-opacity="1" stop-color="rgb(18.833923%, 18.82019%, 19.882202%)" offset="0.015625"/><stop stop-opacity="1" stop-color="rgb(18.841553%, 18.824768%, 20.121765%)" offset="0.0195312"/><stop stop-opacity="1" stop-color="rgb(18.849182%, 18.829346%, 20.362854%)" offset="0.0234375"/><stop stop-opacity="1" stop-color="rgb(18.856812%, 18.833923%, 20.603943%)" offset="0.0273438"/><stop stop-opacity="1" stop-color="rgb(18.864441%, 18.838501%, 20.845032%)" offset="0.03125"/><stop stop-opacity="1" stop-color="rgb(18.87207%, 18.843079%, 21.084595%)" offset="0.0351562"/><stop stop-opacity="1" stop-color="rgb(18.881226%, 18.847656%, 21.325684%)" offset="0.0390625"/><stop stop-opacity="1" stop-color="rgb(18.888855%, 18.852234%, 21.566772%)" offset="0.0429688"/><stop stop-opacity="1" stop-color="rgb(18.896484%, 18.856812%, 21.806335%)" offset="0.046875"/><stop stop-opacity="1" stop-color="rgb(18.904114%, 18.861389%, 22.047424%)" offset="0.0507812"/><stop stop-opacity="1" stop-color="rgb(18.911743%, 18.865967%, 22.288513%)" offset="0.0546875"/><stop stop-opacity="1" stop-color="rgb(18.919373%, 18.870544%, 22.528076%)" offset="0.0585938"/><stop stop-opacity="1" stop-color="rgb(18.927002%, 18.875122%, 22.769165%)" offset="0.0625"/><stop stop-opacity="1" stop-color="rgb(18.934631%, 18.881226%, 23.010254%)" offset="0.0664062"/><stop stop-opacity="1" stop-color="rgb(18.943787%, 18.885803%, 23.249817%)" offset="0.0703125"/><stop stop-opacity="1" stop-color="rgb(18.951416%, 18.890381%, 23.490906%)" offset="0.0742188"/><stop stop-opacity="1" stop-color="rgb(18.959045%, 18.894958%, 23.731995%)" offset="0.078125"/><stop stop-opacity="1" stop-color="rgb(18.966675%, 18.899536%, 23.973083%)" offset="0.0820312"/><stop stop-opacity="1" stop-color="rgb(18.974304%, 18.904114%, 24.212646%)" offset="0.0859375"/><stop stop-opacity="1" stop-color="rgb(18.981934%, 18.908691%, 24.453735%)" offset="0.0898438"/><stop stop-opacity="1" stop-color="rgb(18.989563%, 18.913269%, 24.694824%)" offset="0.09375"/><stop stop-opacity="1" stop-color="rgb(18.997192%, 18.917847%, 24.934387%)" offset="0.0976562"/><stop stop-opacity="1" stop-color="rgb(19.006348%, 18.922424%, 25.175476%)" offset="0.101562"/><stop stop-opacity="1" stop-color="rgb(19.013977%, 18.927002%, 25.416565%)" offset="0.105469"/><stop stop-opacity="1" stop-color="rgb(19.021606%, 18.93158%, 25.656128%)" offset="0.109375"/><stop stop-opacity="1" stop-color="rgb(19.029236%, 18.936157%, 25.897217%)" offset="0.113281"/><stop stop-opacity="1" stop-color="rgb(19.036865%, 18.942261%, 26.138306%)" offset="0.117188"/><stop stop-opacity="1" stop-color="rgb(19.044495%, 18.946838%, 26.379395%)" offset="0.121094"/><stop stop-opacity="1" stop-color="rgb(19.052124%, 18.951416%, 26.618958%)" offset="0.125"/><stop stop-opacity="1" stop-color="rgb(19.059753%, 18.955994%, 26.860046%)" offset="0.128906"/><stop stop-opacity="1" stop-color="rgb(19.067383%, 18.960571%, 27.101135%)" offset="0.132812"/><stop stop-opacity="1" stop-color="rgb(19.076538%, 18.965149%, 27.340698%)" offset="0.136719"/><stop stop-opacity="1" stop-color="rgb(19.084167%, 18.969727%, 27.581787%)" offset="0.140625"/><stop stop-opacity="1" stop-color="rgb(19.091797%, 18.974304%, 27.822876%)" offset="0.144531"/><stop stop-opacity="1" stop-color="rgb(19.099426%, 18.978882%, 28.062439%)" offset="0.148438"/><stop stop-opacity="1" stop-color="rgb(19.107056%, 18.983459%, 28.303528%)" offset="0.152344"/><stop stop-opacity="1" stop-color="rgb(19.114685%, 18.988037%, 28.544617%)" offset="0.15625"/><stop stop-opacity="1" stop-color="rgb(19.122314%, 18.992615%, 28.785706%)" offset="0.160156"/><stop stop-opacity="1" stop-color="rgb(19.129944%, 18.997192%, 29.025269%)" offset="0.164062"/><stop stop-opacity="1" stop-color="rgb(19.139099%, 19.00177%, 29.266357%)" offset="0.167969"/><stop stop-opacity="1" stop-color="rgb(19.146729%, 19.007874%, 29.507446%)" offset="0.171875"/><stop stop-opacity="1" stop-color="rgb(19.154358%, 19.012451%, 29.747009%)" offset="0.175781"/><stop stop-opacity="1" stop-color="rgb(19.161987%, 19.017029%, 29.988098%)" offset="0.179688"/><stop stop-opacity="1" stop-color="rgb(19.169617%, 19.021606%, 30.229187%)" offset="0.183594"/><stop stop-opacity="1" stop-color="rgb(19.177246%, 19.026184%, 30.46875%)" offset="0.1875"/><stop stop-opacity="1" stop-color="rgb(19.184875%, 19.030762%, 30.709839%)" offset="0.191406"/><stop stop-opacity="1" stop-color="rgb(19.192505%, 19.035339%, 30.950928%)" offset="0.195312"/><stop stop-opacity="1" stop-color="rgb(19.20166%, 19.039917%, 31.190491%)" offset="0.199219"/><stop stop-opacity="1" stop-color="rgb(19.20929%, 19.044495%, 31.43158%)" offset="0.203125"/><stop stop-opacity="1" stop-color="rgb(19.216919%, 19.049072%, 31.672668%)" offset="0.207031"/><stop stop-opacity="1" stop-color="rgb(19.224548%, 19.05365%, 31.913757%)" offset="0.210938"/><stop stop-opacity="1" stop-color="rgb(19.232178%, 19.058228%, 32.15332%)" offset="0.214844"/><stop stop-opacity="1" stop-color="rgb(19.239807%, 19.062805%, 32.394409%)" offset="0.21875"/><stop stop-opacity="1" stop-color="rgb(19.247437%, 19.067383%, 32.635498%)" offset="0.222656"/><stop stop-opacity="1" stop-color="rgb(19.255066%, 19.073486%, 32.875061%)" offset="0.226562"/><stop stop-opacity="1" stop-color="rgb(19.262695%, 19.078064%, 33.11615%)" offset="0.230469"/><stop stop-opacity="1" stop-color="rgb(19.271851%, 19.082642%, 33.357239%)" offset="0.234375"/><stop stop-opacity="1" stop-color="rgb(19.27948%, 19.087219%, 33.596802%)" offset="0.238281"/><stop stop-opacity="1" stop-color="rgb(19.287109%, 19.091797%, 33.837891%)" offset="0.242188"/><stop stop-opacity="1" stop-color="rgb(19.294739%, 19.096375%, 34.078979%)" offset="0.246094"/><stop stop-opacity="1" stop-color="rgb(19.302368%, 19.100952%, 34.320068%)" offset="0.25"/><stop stop-opacity="1" stop-color="rgb(19.309998%, 19.10553%, 34.559631%)" offset="0.253906"/><stop stop-opacity="1" stop-color="rgb(19.317627%, 19.110107%, 34.80072%)" offset="0.257812"/><stop stop-opacity="1" stop-color="rgb(19.325256%, 19.114685%, 35.041809%)" offset="0.261719"/><stop stop-opacity="1" stop-color="rgb(19.334412%, 19.119263%, 35.281372%)" offset="0.265625"/><stop stop-opacity="1" stop-color="rgb(19.342041%, 19.12384%, 35.522461%)" offset="0.269531"/><stop stop-opacity="1" stop-color="rgb(19.34967%, 19.128418%, 35.76355%)" offset="0.273438"/><stop stop-opacity="1" stop-color="rgb(19.3573%, 19.132996%, 36.003113%)" offset="0.277344"/><stop stop-opacity="1" stop-color="rgb(19.364929%, 19.139099%, 36.244202%)" offset="0.28125"/><stop stop-opacity="1" stop-color="rgb(19.372559%, 19.143677%, 36.485291%)" offset="0.285156"/><stop stop-opacity="1" stop-color="rgb(19.380188%, 19.148254%, 36.724854%)" offset="0.289062"/><stop stop-opacity="1" stop-color="rgb(19.387817%, 19.152832%, 36.965942%)" offset="0.292969"/><stop stop-opacity="1" stop-color="rgb(19.396973%, 19.15741%, 37.207031%)" offset="0.296875"/><stop stop-opacity="1" stop-color="rgb(19.404602%, 19.161987%, 37.44812%)" offset="0.300781"/><stop stop-opacity="1" stop-color="rgb(19.412231%, 19.166565%, 37.687683%)" offset="0.304688"/><stop stop-opacity="1" stop-color="rgb(19.419861%, 19.171143%, 37.928772%)" offset="0.308594"/><stop stop-opacity="1" stop-color="rgb(19.42749%, 19.17572%, 38.169861%)" offset="0.3125"/><stop stop-opacity="1" stop-color="rgb(19.43512%, 19.180298%, 38.409424%)" offset="0.316406"/><stop stop-opacity="1" stop-color="rgb(19.442749%, 19.184875%, 38.650513%)" offset="0.320312"/><stop stop-opacity="1" stop-color="rgb(19.450378%, 19.189453%, 38.891602%)" offset="0.324219"/><stop stop-opacity="1" stop-color="rgb(19.458008%, 19.194031%, 39.131165%)" offset="0.328125"/><stop stop-opacity="1" stop-color="rgb(19.467163%, 19.198608%, 39.372253%)" offset="0.332031"/><stop stop-opacity="1" stop-color="rgb(19.474792%, 19.204712%, 39.613342%)" offset="0.335938"/><stop stop-opacity="1" stop-color="rgb(19.482422%, 19.20929%, 39.854431%)" offset="0.339844"/><stop stop-opacity="1" stop-color="rgb(19.490051%, 19.213867%, 40.093994%)" offset="0.34375"/><stop stop-opacity="1" stop-color="rgb(19.497681%, 19.218445%, 40.335083%)" offset="0.347656"/><stop stop-opacity="1" stop-color="rgb(19.50531%, 19.223022%, 40.576172%)" offset="0.351562"/><stop stop-opacity="1" stop-color="rgb(19.512939%, 19.2276%, 40.815735%)" offset="0.355469"/><stop stop-opacity="1" stop-color="rgb(19.520569%, 19.232178%, 41.056824%)" offset="0.359375"/><stop stop-opacity="1" stop-color="rgb(19.529724%, 19.236755%, 41.297913%)" offset="0.363281"/><stop stop-opacity="1" stop-color="rgb(19.537354%, 19.241333%, 41.537476%)" offset="0.367188"/><stop stop-opacity="1" stop-color="rgb(19.544983%, 19.245911%, 41.778564%)" offset="0.371094"/><stop stop-opacity="1" stop-color="rgb(19.552612%, 19.250488%, 42.019653%)" offset="0.375"/><stop stop-opacity="1" stop-color="rgb(19.560242%, 19.255066%, 42.259216%)" offset="0.378906"/><stop stop-opacity="1" stop-color="rgb(19.567871%, 19.259644%, 42.500305%)" offset="0.382812"/><stop stop-opacity="1" stop-color="rgb(19.5755%, 19.264221%, 42.741394%)" offset="0.386719"/><stop stop-opacity="1" stop-color="rgb(19.58313%, 19.270325%, 42.982483%)" offset="0.390625"/><stop stop-opacity="1" stop-color="rgb(19.592285%, 19.274902%, 43.222046%)" offset="0.394531"/><stop stop-opacity="1" stop-color="rgb(19.599915%, 19.27948%, 43.463135%)" offset="0.398438"/><stop stop-opacity="1" stop-color="rgb(19.607544%, 19.284058%, 43.704224%)" offset="0.402344"/><stop stop-opacity="1" stop-color="rgb(19.615173%, 19.288635%, 43.943787%)" offset="0.40625"/><stop stop-opacity="1" stop-color="rgb(19.622803%, 19.293213%, 44.184875%)" offset="0.410156"/><stop stop-opacity="1" stop-color="rgb(19.630432%, 19.297791%, 44.425964%)" offset="0.414062"/><stop stop-opacity="1" stop-color="rgb(19.638062%, 19.302368%, 44.665527%)" offset="0.417969"/><stop stop-opacity="1" stop-color="rgb(19.645691%, 19.306946%, 44.906616%)" offset="0.421875"/><stop stop-opacity="1" stop-color="rgb(19.65332%, 19.311523%, 45.147705%)" offset="0.425781"/><stop stop-opacity="1" stop-color="rgb(19.662476%, 19.316101%, 45.388794%)" offset="0.429688"/><stop stop-opacity="1" stop-color="rgb(19.670105%, 19.320679%, 45.628357%)" offset="0.433594"/><stop stop-opacity="1" stop-color="rgb(19.677734%, 19.325256%, 45.869446%)" offset="0.4375"/><stop stop-opacity="1" stop-color="rgb(19.685364%, 19.329834%, 46.110535%)" offset="0.441406"/><stop stop-opacity="1" stop-color="rgb(19.692993%, 19.335938%, 46.350098%)" offset="0.445312"/><stop stop-opacity="1" stop-color="rgb(19.700623%, 19.340515%, 46.591187%)" offset="0.449219"/><stop stop-opacity="1" stop-color="rgb(19.708252%, 19.345093%, 46.832275%)" offset="0.453125"/><stop stop-opacity="1" stop-color="rgb(19.715881%, 19.34967%, 47.071838%)" offset="0.457031"/><stop stop-opacity="1" stop-color="rgb(19.725037%, 19.354248%, 47.312927%)" offset="0.460938"/><stop stop-opacity="1" stop-color="rgb(19.732666%, 19.358826%, 47.554016%)" offset="0.464844"/><stop stop-opacity="1" stop-color="rgb(19.740295%, 19.363403%, 47.793579%)" offset="0.46875"/><stop stop-opacity="1" stop-color="rgb(19.747925%, 19.367981%, 48.034668%)" offset="0.472656"/><stop stop-opacity="1" stop-color="rgb(19.755554%, 19.372559%, 48.275757%)" offset="0.476562"/><stop stop-opacity="1" stop-color="rgb(19.763184%, 19.377136%, 48.516846%)" offset="0.480469"/><stop stop-opacity="1" stop-color="rgb(19.770813%, 19.381714%, 48.756409%)" offset="0.484375"/><stop stop-opacity="1" stop-color="rgb(19.778442%, 19.386292%, 48.997498%)" offset="0.488281"/><stop stop-opacity="1" stop-color="rgb(19.787598%, 19.390869%, 49.238586%)" offset="0.492188"/><stop stop-opacity="1" stop-color="rgb(19.795227%, 19.395447%, 49.478149%)" offset="0.496094"/><stop stop-opacity="1" stop-color="rgb(19.802856%, 19.40155%, 49.719238%)" offset="0.5"/><stop stop-opacity="1" stop-color="rgb(19.810486%, 19.406128%, 49.960327%)" offset="0.503906"/><stop stop-opacity="1" stop-color="rgb(19.818115%, 19.410706%, 50.19989%)" offset="0.507812"/><stop stop-opacity="1" stop-color="rgb(19.825745%, 19.415283%, 50.440979%)" offset="0.511719"/><stop stop-opacity="1" stop-color="rgb(19.833374%, 19.419861%, 50.682068%)" offset="0.515625"/><stop stop-opacity="1" stop-color="rgb(19.841003%, 19.424438%, 50.923157%)" offset="0.519531"/><stop stop-opacity="1" stop-color="rgb(19.848633%, 19.429016%, 51.16272%)" offset="0.523438"/><stop stop-opacity="1" stop-color="rgb(19.857788%, 19.433594%, 51.403809%)" offset="0.527344"/><stop stop-opacity="1" stop-color="rgb(19.865417%, 19.438171%, 51.644897%)" offset="0.53125"/><stop stop-opacity="1" stop-color="rgb(19.873047%, 19.442749%, 51.88446%)" offset="0.535156"/><stop stop-opacity="1" stop-color="rgb(19.880676%, 19.447327%, 52.125549%)" offset="0.539062"/><stop stop-opacity="1" stop-color="rgb(19.888306%, 19.451904%, 52.366638%)" offset="0.542969"/><stop stop-opacity="1" stop-color="rgb(19.895935%, 19.456482%, 52.606201%)" offset="0.546875"/><stop stop-opacity="1" stop-color="rgb(19.903564%, 19.46106%, 52.84729%)" offset="0.550781"/><stop stop-opacity="1" stop-color="rgb(19.911194%, 19.467163%, 53.088379%)" offset="0.554688"/><stop stop-opacity="1" stop-color="rgb(19.920349%, 19.471741%, 53.327942%)" offset="0.558594"/><stop stop-opacity="1" stop-color="rgb(19.927979%, 19.476318%, 53.569031%)" offset="0.5625"/><stop stop-opacity="1" stop-color="rgb(19.935608%, 19.480896%, 53.81012%)" offset="0.566406"/><stop stop-opacity="1" stop-color="rgb(19.943237%, 19.485474%, 54.051208%)" offset="0.570312"/><stop stop-opacity="1" stop-color="rgb(19.950867%, 19.490051%, 54.290771%)" offset="0.574219"/><stop stop-opacity="1" stop-color="rgb(19.958496%, 19.494629%, 54.53186%)" offset="0.578125"/><stop stop-opacity="1" stop-color="rgb(19.966125%, 19.499207%, 54.772949%)" offset="0.582031"/><stop stop-opacity="1" stop-color="rgb(19.973755%, 19.503784%, 55.012512%)" offset="0.585938"/><stop stop-opacity="1" stop-color="rgb(19.98291%, 19.508362%, 55.253601%)" offset="0.589844"/><stop stop-opacity="1" stop-color="rgb(19.99054%, 19.512939%, 55.49469%)" offset="0.59375"/><stop stop-opacity="1" stop-color="rgb(19.998169%, 19.517517%, 55.734253%)" offset="0.597656"/><stop stop-opacity="1" stop-color="rgb(20.005798%, 19.522095%, 55.975342%)" offset="0.601562"/><stop stop-opacity="1" stop-color="rgb(20.013428%, 19.528198%, 56.216431%)" offset="0.605469"/><stop stop-opacity="1" stop-color="rgb(20.021057%, 19.532776%, 56.45752%)" offset="0.609375"/><stop stop-opacity="1" stop-color="rgb(20.028687%, 19.537354%, 56.697083%)" offset="0.613281"/><stop stop-opacity="1" stop-color="rgb(20.036316%, 19.541931%, 56.938171%)" offset="0.617188"/><stop stop-opacity="1" stop-color="rgb(20.043945%, 19.546509%, 57.17926%)" offset="0.621094"/><stop stop-opacity="1" stop-color="rgb(20.053101%, 19.551086%, 57.418823%)" offset="0.625"/><stop stop-opacity="1" stop-color="rgb(20.06073%, 19.555664%, 57.659912%)" offset="0.628906"/><stop stop-opacity="1" stop-color="rgb(20.068359%, 19.560242%, 57.901001%)" offset="0.632812"/><stop stop-opacity="1" stop-color="rgb(20.075989%, 19.564819%, 58.140564%)" offset="0.636719"/><stop stop-opacity="1" stop-color="rgb(20.083618%, 19.569397%, 58.381653%)" offset="0.640625"/><stop stop-opacity="1" stop-color="rgb(20.091248%, 19.573975%, 58.622742%)" offset="0.644531"/><stop stop-opacity="1" stop-color="rgb(20.098877%, 19.578552%, 58.863831%)" offset="0.648438"/><stop stop-opacity="1" stop-color="rgb(20.106506%, 19.58313%, 59.103394%)" offset="0.652344"/><stop stop-opacity="1" stop-color="rgb(20.115662%, 19.587708%, 59.344482%)" offset="0.65625"/><stop stop-opacity="1" stop-color="rgb(20.123291%, 19.593811%, 59.585571%)" offset="0.660156"/><stop stop-opacity="1" stop-color="rgb(20.13092%, 19.598389%, 59.825134%)" offset="0.664062"/><stop stop-opacity="1" stop-color="rgb(20.13855%, 19.602966%, 60.066223%)" offset="0.667969"/><stop stop-opacity="1" stop-color="rgb(20.146179%, 19.607544%, 60.307312%)" offset="0.671875"/><stop stop-opacity="1" stop-color="rgb(20.153809%, 19.612122%, 60.546875%)" offset="0.675781"/><stop stop-opacity="1" stop-color="rgb(20.161438%, 19.616699%, 60.787964%)" offset="0.679688"/><stop stop-opacity="1" stop-color="rgb(20.169067%, 19.621277%, 61.029053%)" offset="0.683594"/><stop stop-opacity="1" stop-color="rgb(20.178223%, 19.625854%, 61.268616%)" offset="0.6875"/><stop stop-opacity="1" stop-color="rgb(20.185852%, 19.630432%, 61.509705%)" offset="0.691406"/><stop stop-opacity="1" stop-color="rgb(20.193481%, 19.63501%, 61.750793%)" offset="0.695312"/><stop stop-opacity="1" stop-color="rgb(20.201111%, 19.639587%, 61.991882%)" offset="0.699219"/><stop stop-opacity="1" stop-color="rgb(20.20874%, 19.644165%, 62.231445%)" offset="0.703125"/><stop stop-opacity="1" stop-color="rgb(20.21637%, 19.648743%, 62.472534%)" offset="0.707031"/><stop stop-opacity="1" stop-color="rgb(20.223999%, 19.65332%, 62.713623%)" offset="0.710938"/><stop stop-opacity="1" stop-color="rgb(20.231628%, 19.659424%, 62.953186%)" offset="0.714844"/><stop stop-opacity="1" stop-color="rgb(20.239258%, 19.664001%, 63.194275%)" offset="0.71875"/><stop stop-opacity="1" stop-color="rgb(20.248413%, 19.668579%, 63.435364%)" offset="0.722656"/><stop stop-opacity="1" stop-color="rgb(20.256042%, 19.673157%, 63.674927%)" offset="0.726562"/><stop stop-opacity="1" stop-color="rgb(20.263672%, 19.677734%, 63.916016%)" offset="0.730469"/><stop stop-opacity="1" stop-color="rgb(20.271301%, 19.682312%, 64.157104%)" offset="0.734375"/><stop stop-opacity="1" stop-color="rgb(20.278931%, 19.68689%, 64.398193%)" offset="0.738281"/><stop stop-opacity="1" stop-color="rgb(20.28656%, 19.691467%, 64.637756%)" offset="0.742188"/><stop stop-opacity="1" stop-color="rgb(20.294189%, 19.696045%, 64.878845%)" offset="0.746094"/><stop stop-opacity="1" stop-color="rgb(20.301819%, 19.700623%, 65.119934%)" offset="0.75"/><stop stop-opacity="1" stop-color="rgb(20.310974%, 19.7052%, 65.359497%)" offset="0.753906"/><stop stop-opacity="1" stop-color="rgb(20.318604%, 19.709778%, 65.600586%)" offset="0.757812"/><stop stop-opacity="1" stop-color="rgb(20.326233%, 19.714355%, 65.841675%)" offset="0.761719"/><stop stop-opacity="1" stop-color="rgb(20.333862%, 19.718933%, 66.081238%)" offset="0.765625"/><stop stop-opacity="1" stop-color="rgb(20.341492%, 19.725037%, 66.322327%)" offset="0.769531"/><stop stop-opacity="1" stop-color="rgb(20.349121%, 19.729614%, 66.563416%)" offset="0.773438"/><stop stop-opacity="1" stop-color="rgb(20.35675%, 19.734192%, 66.802979%)" offset="0.777344"/><stop stop-opacity="1" stop-color="rgb(20.36438%, 19.73877%, 67.044067%)" offset="0.78125"/><stop stop-opacity="1" stop-color="rgb(20.373535%, 19.743347%, 67.285156%)" offset="0.785156"/><stop stop-opacity="1" stop-color="rgb(20.381165%, 19.747925%, 67.526245%)" offset="0.789062"/><stop stop-opacity="1" stop-color="rgb(20.388794%, 19.752502%, 67.765808%)" offset="0.792969"/><stop stop-opacity="1" stop-color="rgb(20.396423%, 19.75708%, 68.006897%)" offset="0.796875"/><stop stop-opacity="1" stop-color="rgb(20.404053%, 19.761658%, 68.247986%)" offset="0.800781"/><stop stop-opacity="1" stop-color="rgb(20.411682%, 19.766235%, 68.487549%)" offset="0.804688"/><stop stop-opacity="1" stop-color="rgb(20.419312%, 19.770813%, 68.728638%)" offset="0.808594"/><stop stop-opacity="1" stop-color="rgb(20.426941%, 19.775391%, 68.969727%)" offset="0.8125"/><stop stop-opacity="1" stop-color="rgb(20.43457%, 19.779968%, 69.20929%)" offset="0.816406"/><stop stop-opacity="1" stop-color="rgb(20.443726%, 19.784546%, 69.450378%)" offset="0.820312"/><stop stop-opacity="1" stop-color="rgb(20.451355%, 19.790649%, 69.691467%)" offset="0.824219"/><stop stop-opacity="1" stop-color="rgb(20.458984%, 19.795227%, 69.932556%)" offset="0.828125"/><stop stop-opacity="1" stop-color="rgb(20.466614%, 19.799805%, 70.172119%)" offset="0.832031"/><stop stop-opacity="1" stop-color="rgb(20.474243%, 19.804382%, 70.413208%)" offset="0.835938"/><stop stop-opacity="1" stop-color="rgb(20.481873%, 19.80896%, 70.654297%)" offset="0.839844"/><stop stop-opacity="1" stop-color="rgb(20.489502%, 19.813538%, 70.89386%)" offset="0.84375"/><stop stop-opacity="1" stop-color="rgb(20.497131%, 19.818115%, 71.134949%)" offset="0.847656"/><stop stop-opacity="1" stop-color="rgb(20.506287%, 19.822693%, 71.376038%)" offset="0.851562"/><stop stop-opacity="1" stop-color="rgb(20.513916%, 19.827271%, 71.615601%)" offset="0.855469"/><stop stop-opacity="1" stop-color="rgb(20.521545%, 19.831848%, 71.856689%)" offset="0.859375"/><stop stop-opacity="1" stop-color="rgb(20.529175%, 19.836426%, 72.097778%)" offset="0.863281"/><stop stop-opacity="1" stop-color="rgb(20.536804%, 19.841003%, 72.337341%)" offset="0.867188"/><stop stop-opacity="1" stop-color="rgb(20.544434%, 19.845581%, 72.57843%)" offset="0.871094"/><stop stop-opacity="1" stop-color="rgb(20.552063%, 19.850159%, 72.819519%)" offset="0.875"/><stop stop-opacity="1" stop-color="rgb(20.559692%, 19.856262%, 73.060608%)" offset="0.878906"/><stop stop-opacity="1" stop-color="rgb(20.568848%, 19.86084%, 73.300171%)" offset="0.882812"/><stop stop-opacity="1" stop-color="rgb(20.576477%, 19.865417%, 73.54126%)" offset="0.886719"/><stop stop-opacity="1" stop-color="rgb(20.584106%, 19.869995%, 73.782349%)" offset="0.890625"/><stop stop-opacity="1" stop-color="rgb(20.591736%, 19.874573%, 74.021912%)" offset="0.894531"/><stop stop-opacity="1" stop-color="rgb(20.599365%, 19.87915%, 74.263%)" offset="0.898438"/><stop stop-opacity="1" stop-color="rgb(20.606995%, 19.883728%, 74.504089%)" offset="0.902344"/><stop stop-opacity="1" stop-color="rgb(20.614624%, 19.888306%, 74.743652%)" offset="0.90625"/><stop stop-opacity="1" stop-color="rgb(20.622253%, 19.892883%, 74.984741%)" offset="0.910156"/><stop stop-opacity="1" stop-color="rgb(20.629883%, 19.897461%, 75.22583%)" offset="0.914062"/><stop stop-opacity="1" stop-color="rgb(20.639038%, 19.902039%, 75.466919%)" offset="0.917969"/><stop stop-opacity="1" stop-color="rgb(20.646667%, 19.906616%, 75.706482%)" offset="0.921875"/><stop stop-opacity="1" stop-color="rgb(20.654297%, 19.911194%, 75.947571%)" offset="0.925781"/><stop stop-opacity="1" stop-color="rgb(20.661926%, 19.915771%, 76.18866%)" offset="0.929688"/><stop stop-opacity="1" stop-color="rgb(20.669556%, 19.921875%, 76.428223%)" offset="0.933594"/><stop stop-opacity="1" stop-color="rgb(20.677185%, 19.926453%, 76.669312%)" offset="0.9375"/><stop stop-opacity="1" stop-color="rgb(20.684814%, 19.93103%, 76.9104%)" offset="0.941406"/><stop stop-opacity="1" stop-color="rgb(20.692444%, 19.935608%, 77.149963%)" offset="0.945312"/><stop stop-opacity="1" stop-color="rgb(20.701599%, 19.940186%, 77.391052%)" offset="0.949219"/><stop stop-opacity="1" stop-color="rgb(20.709229%, 19.944763%, 77.632141%)" offset="0.953125"/><stop stop-opacity="1" stop-color="rgb(20.716858%, 19.949341%, 77.871704%)" offset="0.957031"/><stop stop-opacity="1" stop-color="rgb(20.724487%, 19.953918%, 78.112793%)" offset="0.960938"/><stop stop-opacity="1" stop-color="rgb(20.732117%, 19.958496%, 78.353882%)" offset="0.964844"/><stop stop-opacity="1" stop-color="rgb(20.739746%, 19.963074%, 78.594971%)" offset="0.96875"/><stop stop-opacity="1" stop-color="rgb(20.747375%, 19.967651%, 78.834534%)" offset="0.972656"/><stop stop-opacity="1" stop-color="rgb(20.755005%, 19.972229%, 79.075623%)" offset="0.976562"/><stop stop-opacity="1" stop-color="rgb(20.76416%, 19.976807%, 79.316711%)" offset="0.980469"/><stop stop-opacity="1" stop-color="rgb(20.77179%, 19.981384%, 79.556274%)" offset="0.984375"/><stop stop-opacity="1" stop-color="rgb(20.779419%, 19.987488%, 79.797363%)" offset="0.988281"/><stop stop-opacity="1" stop-color="rgb(20.787048%, 19.992065%, 80.038452%)" offset="0.992188"/><stop stop-opacity="1" stop-color="rgb(20.794678%, 19.996643%, 80.278015%)" offset="0.996094"/><stop stop-opacity="1" stop-color="rgb(20.799255%, 19.999695%, 80.39856%)" offset="1"/></radialGradient><clipPath id="3f415f4887"><path d="M 373 356.023438 L 437 356.023438 L 437 454 L 373 454 Z M 373 356.023438 " clip-rule="nonzero"/></clipPath></defs><g clip-path="url(#e5081eb776)"><g clip-path="url(#30ae6f12e9)"><path fill="#f4eedc" d="M 17.8125 17.8125 L 792.1875 17.8125 L 792.1875 792.1875 L 17.8125 792.1875 Z M 17.8125 17.8125 " fill-opacity="1" fill-rule="nonzero"/></g></g><g clip-path="url(#4a6f4aea07)"><path fill="#c53755" d="M 562.675781 401.199219 C 560.496094 399.054688 557.757812 396.96875 554.480469 394.957031 C 541.355469 386.972656 520.867188 381.394531 520.289062 388.953125 C 519.945312 393.449219 523.320312 396.054688 528.417969 398.511719 C 530.96875 399.738281 533.949219 400.933594 537.113281 402.3125 C 540.285156 403.6875 543.585938 405.246094 546.996094 407.191406 C 555.839844 412.289062 561.09375 418.734375 564.207031 421.480469 C 564.582031 430.304688 565.261719 439.121094 566.238281 447.910156 C 563.519531 445.589844 560.054688 443.449219 555.925781 441.484375 C 542.078125 435.058594 521.140625 431.867188 521.339844 439.460938 C 521.457031 443.96875 525.082031 446.171875 530.398438 448.03125 C 535.773438 449.875 542.933594 451.402344 550.027344 454.492188 C 557.128906 457.585938 562.234375 461.714844 565.742188 464.539062 C 566.925781 465.445312 567.929688 466.214844 568.78125 466.78125 C 568.789062 466.796875 568.800781 466.820312 568.808594 466.84375 C 570.199219 475.519531 571.871094 484.144531 573.835938 492.691406 C 570.902344 490.707031 567.230469 488.988281 562.777344 487.550781 C 559.058594 486.367188 555.054688 485.425781 551.078125 484.808594 C 547.089844 484.183594 543.128906 483.875 539.65625 483.953125 C 532.699219 484.097656 527.671875 485.835938 528.160156 489.589844 C 528.3125 490.707031 528.640625 491.660156 529.191406 492.472656 C 529.757812 493.28125 530.496094 493.953125 531.382812 494.527344 C 533.160156 495.675781 535.53125 496.410156 538.316406 497.011719 C 543.886719 498.21875 551.105469 498.914062 558.460938 501.167969 C 562.152344 502.285156 565.304688 503.746094 568.140625 505.1875 C 571.003906 506.625 573.40625 508.078125 575.371094 509.265625 C 576.597656 510.003906 577.652344 510.640625 578.535156 511.097656 C 580.933594 519.609375 583.59375 528.03125 586.558594 536.3125 C 586.039062 536.035156 585.511719 535.765625 584.949219 535.511719 C 582.164062 534.246094 578.871094 533.230469 575.101562 532.46875 C 560.03125 529.480469 538.859375 531.261719 540.929688 538.582031 C 542.152344 542.929688 546.222656 544.21875 551.859375 544.773438 C 554.675781 545.058594 557.882812 545.15625 561.332031 545.363281 C 564.769531 545.570312 568.4375 545.886719 572.304688 546.542969 C 582.40625 548.292969 589.570312 552.570312 593.417969 554.058594 C 596.78125 562.167969 600.453125 570.183594 604.398438 578.085938 C 603.84375 577.882812 603.285156 577.679688 602.699219 577.503906 C 599.730469 576.605469 596.261719 576.023438 592.496094 575.679688 C 577.316406 574.425781 556.574219 578.660156 559.363281 585.734375 C 562.625 594.167969 576.089844 588.964844 591.5 589.914062 C 595.351562 590.140625 598.832031 590.785156 601.875 591.550781 C 603.398438 591.929688 604.800781 592.347656 606.113281 592.753906 C 607.441406 593.15625 608.667969 593.527344 609.773438 593.867188 C 611.160156 594.296875 612.328125 594.65625 613.308594 594.890625 C 617.625 602.578125 622.21875 610.117188 627.050781 617.511719 C 623.632812 616.648438 619.597656 616.296875 614.953125 616.480469 C 607.238281 616.789062 598.347656 618.652344 591.921875 621.171875 C 585.480469 623.699219 581.285156 627.117188 583.117188 630.417969 C 587.582031 638.25 600.199219 631.605469 615.507812 630.808594 C 625.738281 630.167969 633.726562 632.621094 637.832031 633.152344 C 643.011719 640.292969 648.433594 647.261719 654.074219 654.03125 C 653.476562 653.960938 652.875 653.894531 652.246094 653.859375 C 649.117188 653.699219 645.773438 653.804688 641.96875 654.402344 C 626.867188 656.742188 607.664062 665.707031 612.054688 671.902344 C 614.660156 675.585938 618.902344 675.414062 624.355469 674.003906 C 629.835938 672.574219 636.652344 669.859375 644.261719 668.507812 C 651.894531 667.136719 658.40625 667.761719 662.921875 668.136719 C 664.355469 668.230469 665.585938 668.308594 666.582031 668.3125 C 670.109375 672.144531 673.6875 675.917969 677.355469 679.589844 L 680.964844 675.980469 C 678.410156 673.421875 675.894531 670.808594 673.410156 668.171875 C 673.515625 667.222656 673.574219 666.0625 673.65625 664.730469 C 673.792969 662.511719 673.96875 659.835938 674.5 656.847656 C 675.089844 653.804688 676.007812 650.476562 677.519531 647.03125 C 680.546875 640.148438 684.804688 634.453125 687.691406 629.792969 C 689.132812 627.464844 690.234375 625.402344 690.683594 623.59375 C 691.132812 621.777344 690.894531 620.257812 689.804688 618.867188 C 686.136719 614.351562 671.082031 628.878906 664.65625 642.597656 C 662.632812 646.988281 661.542969 651.0625 661.320312 654.726562 C 655.492188 647.929688 649.894531 640.914062 644.542969 633.707031 C 645.492188 629.589844 646.265625 621.589844 651.101562 613.316406 C 654.84375 606.875 659.699219 601.746094 663.179688 597.410156 C 666.628906 593.085938 668.621094 589.667969 666.65625 586.734375 C 663.410156 581.910156 646.839844 594.527344 638.929688 607.359375 C 636.347656 611.46875 634.757812 615.359375 634.101562 618.929688 C 629.125 611.535156 624.414062 603.96875 619.964844 596.257812 C 620.277344 595.371094 620.597656 594.289062 620.980469 593.054688 C 622.304688 588.777344 624.160156 582.808594 628.800781 576.761719 C 637.929688 564.792969 650.648438 558.433594 647.285156 552.222656 C 645.984375 549.59375 640.914062 550.960938 634.894531 554.433594 C 628.902344 557.90625 621.957031 563.578125 617.386719 569.425781 C 614.402344 573.207031 612.386719 576.898438 611.308594 580.402344 C 607.191406 572.429688 603.371094 564.328125 599.855469 556.128906 C 600.25 555.304688 600.679688 554.292969 601.179688 553.136719 C 603.050781 549.03125 605.828125 543.222656 610.996094 537.820312 C 616.164062 532.417969 622.105469 528.558594 626.398438 525.1875 C 630.695312 521.816406 633.503906 518.925781 632.292969 515.621094 C 630.316406 510.160156 611.238281 518.5625 600.503906 529.210938 C 597.835938 531.859375 595.65625 534.554688 594.203125 537.167969 C 593.792969 537.902344 593.445312 538.625 593.128906 539.347656 C 590.019531 531.019531 587.199219 522.546875 584.671875 513.96875 C 586.964844 510.449219 590.40625 503.199219 597.765625 497.105469 C 609.464844 487.601562 623.351562 484.382812 621.601562 477.542969 C 620.167969 471.914062 600.277344 478.003906 588.480469 487.289062 C 584.707031 490.246094 581.871094 493.347656 579.96875 496.480469 C 577.863281 487.832031 576.042969 479.097656 574.53125 470.304688 C 575.125 469.578125 575.792969 468.683594 576.570312 467.652344 C 577.917969 465.882812 579.5 463.761719 581.660156 461.558594 C 583.832031 459.355469 586.441406 457.097656 589.609375 455.070312 C 595.9375 451.023438 602.640625 448.644531 607.625 446.367188 C 610.121094 445.230469 612.179688 444.125 613.554688 442.867188 C 614.949219 441.605469 615.558594 440.210938 615.429688 438.449219 C 614.902344 432.652344 594.289062 436.398438 581.355469 444.246094 C 577.253906 446.765625 574.097656 449.542969 571.886719 452.453125 C 570.777344 443.566406 569.992188 434.640625 569.507812 425.707031 C 570.171875 425.058594 570.933594 424.265625 571.859375 423.34375 C 575.023438 420.132812 579.621094 415.640625 586.332031 412.351562 C 593.042969 409.0625 599.945312 407.480469 605.132812 405.789062 C 610.359375 404.101562 613.964844 402.347656 613.972656 398.816406 C 614 392.984375 593.195312 394.332031 579.449219 400.636719 C 576.027344 402.210938 573.074219 403.992188 570.777344 405.941406 C 570.121094 406.507812 569.527344 407.09375 568.964844 407.6875 C 568.960938 406.902344 568.9375 406.113281 568.9375 405.328125 C 568.9375 397.195312 569.230469 389.046875 569.761719 380.90625 C 573.117188 378.410156 578.859375 372.742188 587.917969 369.523438 C 591.382812 368.269531 594.980469 367.464844 598.324219 366.832031 C 601.675781 366.195312 604.800781 365.734375 607.507812 365.199219 C 612.917969 364.136719 616.632812 362.808594 617.003906 359.300781 C 617.601562 353.511719 596.820312 352.429688 582.539062 357.109375 C 577.988281 358.597656 574.226562 360.539062 571.359375 362.835938 C 572.355469 353.972656 573.65625 345.136719 575.253906 336.367188 C 576.0625 335.890625 576.996094 335.28125 578.070312 334.585938 C 579.9375 333.378906 582.210938 331.941406 584.921875 330.597656 C 587.648438 329.257812 590.9375 328.042969 594.597656 327.21875 C 609.289062 323.996094 623.070312 327.359375 624.535156 320.457031 C 625.285156 317.625 620.496094 315.375 613.671875 314.140625 C 610.253906 313.523438 606.328125 313.175781 602.316406 313.167969 C 598.296875 313.152344 594.214844 313.488281 590.585938 314.238281 C 585.898438 315.1875 581.988281 316.695312 578.914062 318.660156 C 580.925781 309.929688 583.234375 301.28125 585.84375 292.742188 C 586.679688 292.371094 587.660156 291.882812 588.789062 291.339844 C 592.867188 289.414062 598.734375 286.777344 606.164062 286.003906 C 613.589844 285.226562 620.621094 286.121094 626.066406 286.328125 C 631.585938 286.554688 635.542969 286.152344 636.765625 282.851562 C 638.78125 277.398438 618.800781 271.46875 603.734375 272.648438 C 599.976562 272.941406 596.621094 273.605469 593.765625 274.636719 C 592.980469 274.933594 592.238281 275.261719 591.527344 275.609375 C 593.5625 269.957031 595.714844 264.363281 598.003906 258.839844 C 599.6875 254.777344 601.46875 250.746094 603.300781 246.738281 C 604.207031 246.476562 605.277344 246.105469 606.511719 245.6875 C 608.613281 244.976562 611.171875 244.140625 614.128906 243.503906 C 617.128906 242.882812 620.589844 242.5 624.339844 242.605469 C 639.382812 243.078125 651.875 249.699219 655.042969 243.390625 C 657.867188 238.3125 638.695312 229.789062 623.625 229.027344 C 618.828125 228.796875 614.660156 229.308594 611.195312 230.46875 C 615.960938 221.214844 621.113281 212.132812 626.636719 203.261719 C 630.796875 202.640625 638.488281 200.414062 647.933594 201.867188 C 662.769531 204.261719 674.441406 212.523438 678.386719 206.660156 C 681.644531 201.832031 663.867188 191.03125 649.085938 188.386719 C 644.371094 187.542969 640.15625 187.476562 636.554688 188.136719 C 642.457031 179.5625 648.695312 171.214844 655.265625 163.152344 C 656.191406 163.125 657.285156 163.046875 658.570312 162.960938 C 663.074219 162.714844 669.5 162.492188 676.675781 164.578125 C 683.851562 166.65625 690.023438 170.140625 695 172.378906 C 700.023438 174.679688 703.84375 175.785156 706.222656 173.183594 C 710.144531 168.878906 693.867188 155.871094 679.46875 151.289062 C 675.878906 150.144531 672.519531 149.496094 669.484375 149.367188 C 668.628906 149.34375 667.804688 149.378906 667 149.433594 C 671.527344 144.382812 676.179688 139.445312 680.953125 134.660156 L 677.34375 131.050781 C 673.730469 134.671875 670.199219 138.390625 666.726562 142.167969 C 666.726562 141.59375 666.726562 141.015625 666.691406 140.414062 C 666.515625 137.355469 665.890625 133.964844 664.816406 130.265625 C 660.472656 115.507812 649.074219 97.570312 643.566406 102.789062 C 640.296875 105.894531 641.039062 110.101562 643.164062 115.355469 C 645.304688 120.628906 648.710938 126.890625 651.054688 134.289062 C 654.171875 144.058594 653.703125 152.390625 654.167969 156.496094 C 647.574219 164.402344 641.269531 172.574219 635.304688 180.992188 C 634.835938 177.496094 633.671875 173.613281 631.800781 169.363281 C 630.214844 165.804688 628.246094 162.183594 626.0625 158.796875 C 623.875 155.40625 621.472656 152.242188 619.101562 149.699219 C 614.367188 144.601562 609.726562 141.996094 607.253906 144.859375 C 605.75 146.546875 605.378906 148.457031 605.714844 150.550781 C 606.039062 152.640625 607.066406 154.898438 608.464844 157.378906 C 611.269531 162.339844 615.550781 168.191406 618.753906 175.179688 C 620.386719 178.691406 621.351562 181.988281 622.210938 185.101562 C 623.035156 188.191406 623.542969 190.953125 623.957031 193.203125 C 624.21875 194.609375 624.441406 195.816406 624.683594 196.777344 C 619.117188 205.5 613.894531 214.425781 609.054688 223.523438 C 608.105469 220.082031 606.433594 216.359375 604.136719 212.429688 C 596.300781 199.320312 580.78125 184.890625 576.675781 191.289062 C 574.238281 195.089844 575.992188 198.953125 579.34375 203.476562 C 582.789062 208.050781 587.8125 213.320312 591.941406 219.871094 C 596.09375 226.429688 597.917969 232.675781 599.316406 237.027344 C 599.773438 238.398438 600.167969 239.582031 600.542969 240.515625 C 597.996094 245.921875 595.574219 251.382812 593.292969 256.886719 C 591.628906 260.902344 590.050781 264.972656 588.519531 269.058594 C 588.296875 268.511719 588.070312 267.957031 587.800781 267.390625 C 586.492188 264.625 584.632812 261.722656 582.246094 258.699219 C 572.671875 246.667969 555.367188 234.332031 552.222656 241.25 C 550.355469 245.363281 552.628906 248.980469 556.570312 253.054688 C 560.542969 257.132812 566.042969 261.652344 571.007812 267.617188 C 577.605469 275.519531 580.3125 283.441406 582.292969 287.050781 C 579.621094 295.429688 577.226562 303.921875 575.125 312.503906 C 574.824219 311.96875 574.515625 311.4375 574.167969 310.898438 C 573.328125 309.597656 572.328125 308.265625 571.226562 306.9375 C 570.15625 305.613281 568.945312 304.273438 567.597656 302.914062 C 556.8125 292.132812 538.246094 281.941406 535.8125 289.148438 C 534.386719 293.4375 536.972656 296.738281 541.398438 300.324219 C 545.855469 303.917969 552.015625 307.792969 557.621094 313.125 C 563.253906 318.472656 566.527344 324.078125 568.972656 327.953125 C 569.765625 329.203125 570.449219 330.265625 571.050781 331.082031 C 569.378906 339.707031 567.976562 348.394531 566.882812 357.113281 C 564.816406 354.261719 561.964844 351.40625 558.316406 348.558594 C 552.148438 343.800781 544.367188 339.5 537.777344 337.257812 C 531.195312 335.015625 525.875 334.917969 525.035156 338.613281 C 523.34375 347.46875 537.328125 350.570312 549.554688 359.863281 C 555.585938 364.484375 559.851562 369.699219 562.699219 373.261719 C 563.566406 374.347656 564.320312 375.28125 564.972656 376.003906 C 564.300781 384.820312 563.9375 393.648438 563.867188 402.460938 C 563.488281 402.039062 563.101562 401.617188 562.675781 401.199219 " fill-opacity="1" fill-rule="nonzero"/></g><g clip-path="url(#606b1b4ac3)"><path fill="#c53755" d="M 131.25 147.730469 C 116.628906 151.695312 99.957031 164.09375 103.695312 168.585938 C 108.207031 174.023438 119.042969 164.667969 133.695312 160.921875 C 143.214844 158.5625 151.328125 160.15625 155.496094 160.335938 C 162.007812 168.136719 168.226562 176.199219 174.105469 184.507812 C 170.660156 183.820312 166.664062 183.742188 162.179688 184.355469 C 158.484375 184.84375 154.488281 185.894531 150.683594 187.246094 C 146.886719 188.589844 143.289062 190.222656 140.269531 191.945312 C 134.238281 195.390625 130.492188 199.128906 132.152344 201.539062 C 133.183594 202.96875 134.613281 203.613281 136.476562 203.703125 C 138.339844 203.789062 140.640625 203.316406 143.292969 202.597656 C 148.601562 201.171875 155.304688 198.726562 162.828125 197.8125 C 166.5625 197.375 170.136719 197.390625 173.128906 197.777344 C 176.160156 198.144531 178.816406 198.738281 180.996094 199.246094 C 182.390625 199.570312 183.5625 199.847656 184.542969 200.019531 C 190.015625 208.589844 195.148438 217.367188 199.914062 226.316406 C 196.625 225.183594 192.703125 224.59375 188.09375 224.6875 C 172.835938 224.867188 153.507812 232.664062 156.078125 237.890625 C 157.640625 241.054688 161.621094 241.070312 167.132812 240.292969 C 172.546875 239.570312 179.476562 238.027344 187 238.113281 C 194.507812 238.207031 200.734375 240.25 204.9375 241.820312 C 206.242188 242.324219 207.371094 242.765625 208.304688 243.070312 C 210.8125 248.398438 213.199219 253.769531 215.441406 259.183594 C 217.074219 263.132812 218.625 267.121094 220.128906 271.136719 C 219.597656 270.882812 219.066406 270.640625 218.507812 270.414062 C 215.65625 269.273438 212.335938 268.460938 208.582031 268.011719 C 193.542969 266.175781 173.433594 271.390625 175.207031 276.949219 C 177.332031 283.675781 190.902344 279.089844 205.878906 281.140625 C 215.546875 282.542969 222.445312 287.058594 226.25 288.8125 C 228.875 297.0625 231.238281 305.414062 233.308594 313.863281 C 232.832031 313.550781 232.355469 313.246094 231.84375 312.957031 C 230.519531 312.21875 229.089844 311.535156 227.503906 310.945312 C 225.886719 310.351562 224.148438 309.835938 222.296875 309.398438 C 207.441406 305.84375 186.785156 308.675781 188.015625 314.363281 C 188.742188 317.808594 192.65625 318.78125 198.117188 319.398438 C 203.550781 320.023438 210.65625 320.222656 217.929688 322.148438 C 225.175781 324.082031 230.742188 327.582031 234.410156 330.140625 C 235.535156 330.929688 236.5 331.625 237.320312 332.148438 C 238.980469 340.683594 240.363281 349.285156 241.449219 357.925781 C 238.726562 355.679688 235.234375 353.71875 230.984375 352.128906 C 224.003906 349.476562 215.074219 348.242188 208.136719 348.417969 C 201.183594 348.597656 196.117188 350.105469 196.457031 353.011719 C 196.972656 360.054688 211.058594 358.796875 225.199219 364.277344 C 232.363281 367.03125 237.125 371.195312 240.507812 374.160156 C 241.59375 375.121094 242.519531 375.949219 243.308594 376.570312 C 243.316406 376.605469 243.328125 376.644531 243.335938 376.683594 C 243.992188 385.304688 244.335938 393.9375 244.40625 402.558594 C 243.984375 402.128906 243.542969 401.699219 243.078125 401.28125 C 240.792969 399.230469 237.953125 397.320312 234.574219 395.601562 C 221.082031 388.6875 200.394531 386.617188 200.15625 392.457031 C 200.019531 395.996094 203.503906 397.855469 208.714844 399.730469 C 211.316406 400.660156 214.351562 401.597656 217.582031 402.734375 C 220.800781 403.875 224.265625 405.222656 227.515625 407.003906 C 236.183594 411.699219 241.113281 418.375 244.074219 421.296875 C 243.703125 429.9375 243.03125 438.578125 242.078125 447.1875 C 239.996094 444.410156 237.074219 441.722656 233.222656 439.214844 C 220.503906 430.777344 200.140625 426.335938 199.324219 432.117188 C 198.839844 435.613281 202.121094 437.867188 207.113281 440.328125 C 212.039062 442.78125 218.601562 445.398438 224.777344 449.707031 C 230.941406 454.003906 234.863281 459.183594 237.550781 462.863281 C 238.324219 463.976562 238.988281 464.941406 239.574219 465.707031 C 238.199219 474.300781 236.542969 482.851562 234.597656 491.320312 C 232.816406 488.292969 230.21875 485.265625 226.808594 482.351562 C 223.988281 479.917969 220.53125 477.628906 217 475.683594 C 213.472656 473.742188 209.855469 472.144531 206.5625 471.035156 C 199.976562 468.824219 194.695312 468.503906 194.003906 471.351562 C 193.792969 472.207031 193.84375 473.015625 194.058594 473.785156 C 194.265625 474.550781 194.679688 475.289062 195.265625 476.011719 C 196.445312 477.457031 198.324219 478.863281 200.621094 480.371094 C 205.214844 483.382812 211.496094 486.765625 217.179688 491.773438 C 219.996094 494.277344 222.316406 496.945312 224.074219 499.457031 C 225.816406 501.960938 227.132812 504.335938 228.199219 506.304688 C 228.875 507.550781 229.445312 508.625 229.964844 509.472656 C 227.605469 517.84375 224.984375 526.121094 222.078125 534.265625 C 221.832031 533.730469 221.585938 533.195312 221.296875 532.652344 C 219.859375 529.9375 217.851562 527.171875 215.269531 524.398438 C 204.976562 513.269531 186.253906 504.238281 184.027344 509.621094 C 182.683594 512.878906 185.320312 515.824219 189.566406 519.367188 C 191.734375 521.109375 194.199219 523.097656 196.859375 525.234375 C 199.503906 527.414062 202.265625 529.863281 204.707031 532.65625 C 211.203125 540.011719 213.550781 547.945312 215.328125 551.726562 C 212.011719 559.730469 208.386719 567.632812 204.5 575.425781 C 204.332031 574.863281 204.160156 574.292969 203.941406 573.71875 C 202.886719 570.882812 201.292969 567.9375 198.992188 564.84375 C 189.941406 552.515625 172.351562 541.3125 169.621094 546.457031 C 166.390625 552.714844 178.730469 559.402344 187.402344 571.746094 C 189.558594 574.839844 191.125 577.941406 192.296875 580.820312 C 192.886719 582.257812 193.382812 583.648438 193.800781 584.941406 C 194.1875 586.21875 194.507812 587.40625 194.789062 588.488281 C 195.140625 589.84375 195.4375 591.019531 195.738281 591.953125 C 191.492188 599.507812 186.976562 606.921875 182.226562 614.191406 C 181.578125 610.726562 180.179688 606.988281 177.964844 603.050781 C 174.28125 596.46875 168.441406 589.863281 162.980469 585.476562 C 157.535156 581.101562 152.769531 579.019531 151.0625 581.40625 C 146.871094 587.097656 158.496094 595.277344 165.765625 608.628906 C 170.390625 617.304688 170.78125 625.53125 171.597656 629.609375 C 166.503906 636.644531 161.171875 643.5 155.625 650.160156 C 155.589844 649.585938 155.558594 649.003906 155.484375 648.40625 C 155.144531 645.429688 154.125 642.066406 152.664062 638.574219 C 146.769531 624.511719 132.285156 609.535156 128.394531 613.882812 C 126.046875 616.511719 127.527344 620.203125 130.3125 625.015625 C 133.074219 629.808594 137.066406 635.613281 139.828125 642.628906 C 142.566406 649.625 142.984375 656.128906 143.152344 660.652344 C 143.175781 662.066406 143.191406 663.28125 143.265625 664.269531 C 139.804688 668.027344 136.285156 671.734375 132.683594 675.34375 L 136.296875 678.949219 C 138.914062 676.324219 141.488281 673.652344 144.03125 670.945312 C 144.953125 670.984375 146.050781 670.972656 147.316406 670.960938 C 149.574219 670.929688 152.363281 670.90625 155.503906 671.109375 C 158.589844 671.265625 162.046875 671.664062 165.738281 672.589844 C 173.125 674.4375 179.59375 677.574219 184.910156 679.425781 C 187.574219 680.347656 189.949219 680.941406 192.027344 680.871094 C 194.09375 680.796875 195.894531 680.082031 197.238281 678.265625 C 201.851562 672.195312 183.628906 661.832031 168.882812 658.527344 C 164.121094 657.429688 159.894531 657.039062 156.253906 657.347656 C 162.09375 650.527344 167.703125 643.492188 173.070312 636.273438 C 177.179688 635.9375 185.054688 634.027344 194.933594 635.324219 C 202.542969 636.332031 209.375 638.730469 214.800781 639.898438 C 220.257812 641.082031 224.441406 641.089844 226.816406 637.242188 C 230.820312 630.753906 211.429688 622.535156 196.328125 620.929688 C 191.484375 620.464844 187.226562 620.597656 183.609375 621.359375 C 188.664062 613.847656 193.449219 606.160156 197.96875 598.328125 C 198.894531 598.152344 199.972656 597.882812 201.246094 597.5625 C 205.59375 596.445312 212.074219 594.871094 219.589844 594.898438 C 234.792969 595 247.585938 601.210938 251.554688 593.097656 C 253.113281 589.648438 248.820312 586.378906 242.292969 584.089844 C 235.742188 581.789062 227.023438 580.410156 219.320312 580.449219 C 214.40625 580.496094 210.203125 581.109375 206.726562 582.28125 C 210.871094 574.257812 214.71875 566.101562 218.257812 557.84375 C 219.175781 557.558594 220.257812 557.15625 221.519531 556.683594 C 225.652344 555.039062 231.667969 552.625 239.28125 551.820312 C 246.894531 551.023438 254.074219 551.746094 259.726562 551.65625 C 265.375 551.5625 269.371094 550.558594 270.769531 546.257812 C 273.097656 538.992188 252.34375 535.535156 237.34375 537.515625 C 233.566406 538.007812 230.339844 538.832031 227.449219 539.882812 C 226.609375 540.183594 225.820312 540.523438 225.066406 540.875 C 228.210938 532.4375 231.070312 523.863281 233.628906 515.171875 C 237.410156 513.429688 244.1875 508.945312 253.914062 506.765625 C 268.695312 503.304688 282.554688 506.34375 284.449219 497.511719 C 286.027344 490.046875 264.964844 489.050781 250.175781 492.757812 C 245.398438 493.964844 241.457031 495.570312 238.367188 497.542969 C 240.507812 488.773438 242.359375 479.917969 243.890625 471 C 244.699219 470.511719 245.636719 469.871094 246.722656 469.132812 C 248.582031 467.855469 250.9375 466.296875 253.609375 464.71875 C 256.257812 463.132812 259.355469 461.550781 262.945312 460.273438 C 270.117188 457.707031 277.242188 456.734375 282.695312 455.324219 C 285.421875 454.617188 287.726562 453.792969 289.417969 452.582031 C 291.085938 451.371094 292.226562 449.777344 292.324219 447.523438 C 292.777344 439.914062 271.894531 441.394531 257.773438 446.820312 C 253.1875 448.554688 249.441406 450.585938 246.578125 452.875 C 247.683594 443.929688 248.472656 434.945312 248.964844 425.960938 C 249.722656 425.378906 250.582031 424.640625 251.546875 423.761719 C 254.867188 420.792969 259.691406 416.453125 266.566406 413.074219 C 273.445312 409.703125 280.433594 407.910156 285.710938 405.882812 C 290.949219 403.851562 294.378906 401.539062 294.210938 397.035156 C 293.894531 389.429688 273.222656 393.304688 259.8125 400.324219 C 256.445312 402.085938 253.679688 403.96875 251.355469 405.953125 C 250.691406 406.507812 250.085938 407.070312 249.511719 407.644531 C 249.515625 406.867188 249.539062 406.09375 249.539062 405.316406 C 249.539062 397.082031 249.238281 388.832031 248.703125 380.585938 C 251.65625 377.632812 256.464844 371.132812 264.804688 365.78125 C 268.078125 363.707031 271.296875 362.027344 274.378906 360.539062 C 277.460938 359.046875 280.363281 357.75 282.832031 356.433594 C 287.777344 353.8125 290.980469 351.105469 290.335938 346.632812 C 289.246094 339.09375 269.121094 345.359375 256.515625 353.902344 C 252.433594 356.671875 249.320312 359.523438 247.097656 362.433594 C 246.09375 353.453125 244.777344 344.507812 243.15625 335.625 C 243.75 334.886719 244.417969 333.960938 245.183594 332.890625 C 246.507812 331.054688 248.121094 328.792969 250.160156 326.382812 C 252.175781 323.972656 254.488281 321.4375 257.425781 319.003906 C 269.105469 309.246094 282.914062 305.695312 280.675781 296.945312 C 279.59375 293.316406 274.242188 293.589844 267.769531 296.070312 C 264.527344 297.304688 261.007812 299.082031 257.585938 301.164062 C 254.179688 303.246094 250.851562 305.632812 247.925781 308.144531 C 244.1875 311.367188 241.363281 314.570312 239.460938 317.722656 C 237.425781 308.925781 235.105469 300.210938 232.480469 291.613281 C 232.996094 290.800781 233.5625 289.78125 234.203125 288.605469 C 236.300781 284.671875 239.335938 278.9375 244.628906 273.398438 C 249.925781 267.859375 255.871094 263.765625 260.128906 260.039062 C 264.3125 256.332031 266.761719 252.96875 265.039062 248.78125 C 262.128906 241.730469 244.0625 252.523438 233.886719 263.742188 C 231.339844 266.554688 229.363281 269.285156 227.890625 271.941406 C 227.449219 272.710938 227.070312 273.472656 226.71875 274.226562 C 224.660156 268.5 222.476562 262.824219 220.152344 257.230469 C 218.445312 253.109375 216.636719 249.019531 214.78125 244.949219 C 215.167969 244.09375 215.582031 243.050781 216.054688 241.847656 C 216.886719 239.738281 217.898438 237.148438 219.28125 234.3125 C 220.625 231.492188 222.265625 228.457031 224.515625 225.382812 C 233.4375 213.058594 246.003906 206.210938 241.636719 198.308594 C 237.71875 191.765625 221.316406 204.726562 212.65625 217.179688 C 209.828125 221.203125 207.878906 224.992188 206.804688 228.503906 C 201.996094 219.179688 196.804688 210.03125 191.238281 201.089844 C 192.445312 197.121094 193.582031 189.070312 198.421875 180.34375 C 205.714844 166.957031 217.160156 158.652344 211.828125 151.371094 C 207.304688 145.238281 192.550781 160.304688 185.492188 173.8125 C 183.210938 178.1875 181.804688 182.191406 181.226562 185.8125 C 175.25 177.136719 168.9375 168.683594 162.289062 160.523438 C 162.453125 159.582031 162.59375 158.445312 162.75 157.136719 C 163.207031 152.703125 163.847656 146.246094 166.664062 139.121094 C 169.480469 132 173.445312 125.96875 175.980469 120.910156 C 178.460938 115.902344 179.464844 111.863281 176.300781 108.640625 C 170.960938 103.207031 158.28125 120.007812 153.078125 134.242188 C 151.777344 137.804688 150.96875 141.085938 150.613281 144.09375 C 150.496094 144.957031 150.429688 145.792969 150.390625 146.609375 C 145.816406 141.507812 141.125 136.523438 136.296875 131.6875 L 132.683594 135.296875 C 136.257812 138.871094 139.742188 142.550781 143.183594 146.28125 C 142.574219 146.246094 141.96875 146.214844 141.34375 146.214844 C 138.277344 146.234375 134.898438 146.734375 131.25 147.730469 " fill-opacity="1" fill-rule="nonzero"/></g><g clip-path="url(#b04ed59067)"><g clip-path="url(#3afbe801a1)"><path fill="#000000" d="M 289.046875 289.046875 L 520.953125 289.046875 L 520.953125 520.953125 L 289.046875 520.953125 Z M 289.046875 289.046875 " fill-opacity="1" fill-rule="nonzero"/></g></g><g clip-path="url(#edd91882a3)"><g clip-path="url(#a873937c85)"><path fill="url(#1026df1a3c)" d="M 306.054688 289.046875 L 306.054688 462.199219 L 503.941406 462.199219 L 503.941406 289.046875 Z M 306.054688 289.046875 " fill-rule="nonzero"/></g></g><g clip-path="url(#3f415f4887)"><path fill="#ffffff" d="M 405.570312 356.023438 C 385.335938 356.023438 373.859375 367.363281 373.535156 383.773438 L 373.535156 384.59375 L 391.398438 384.59375 L 391.398438 383.773438 C 391.789062 376.523438 396.804688 371.847656 404.382812 371.847656 C 411.894531 371.847656 416.90625 376.191406 416.90625 382.320312 C 416.90625 388.453125 414.335938 391.617188 405.832031 396.691406 C 396.734375 402.03125 393.105469 407.964844 393.964844 418.511719 L 394.066406 421.324219 L 411.5625 421.324219 L 411.5625 418.644531 C 411.5625 412.320312 414.003906 409.082031 422.773438 404.011719 C 432.066406 398.539062 436.871094 391.621094 436.871094 381.730469 C 436.871094 366.503906 424.421875 356.023438 405.570312 356.023438 Z M 403.195312 433.566406 C 396.488281 433.566406 392.304688 437.460938 392.304688 443.800781 C 392.304688 450.085938 396.492188 453.972656 403.195312 453.972656 C 409.894531 453.972656 414.027344 450.085938 414.027344 443.800781 C 414.027344 437.460938 409.898438 433.566406 403.195312 433.566406 Z M 403.195312 433.566406 " fill-opacity="1" fill-rule="nonzero"/></g></svg>