<svg width="285" height="196" viewBox="0 0 285 196" fill="none" xmlns="http://www.w3.org/2000/svg">
		<g id="Group 31">
		<g id="Group 30">
		<path id="Vector 36" d="M226.535 171.515L147.621 80L68.0732 171.515C68.0732 193.319 62.5458 193.319 147.621 193.319C232.697 193.319 226.535 193.319 226.535 171.515Z" fill="#1B8F41" stroke="#F5C580" stroke-width="5"/>
		<path id="Vector 35" d="M196.499 155.979L148.806 100.278L100.531 153.09C107.824 169.3 127.682 181.674 146.339 182.235C164.996 182.797 187.35 171.694 196.499 155.979Z" fill="#F5C580"/>
		<rect id="Rectangle 10" width="31.0737" height="30.9771" transform="matrix(-0.695333 0.718687 -0.695333 -0.718687 168.193 134.63)" fill="#1B8F41"/>
		</g>
		<rect id="Rectangle 98" x="161.645" y="65.6702" width="10.5208" height="14.041" transform="rotate(48.7317 161.645 65.6702)" fill="#D9D9D9"/>
		<rect id="Rectangle 166" x="185.598" y="36.6562" width="10.5208" height="14.041" transform="rotate(48.7317 185.598 36.6562)" fill="#D9D9D9"/>
		<rect id="Rectangle 129" x="175.441" y="52.3049" width="10.5208" height="14.041" transform="rotate(48.7317 175.441 52.3049)" fill="#D9D9D9"/>
		<rect id="Rectangle 141" x="164.231" y="43.5593" width="10.5208" height="14.041" transform="rotate(39.0236 164.231 43.5593)" fill="#D9D9D9"/>
		<rect id="Rectangle 109" x="142.202" y="74.6709" width="10.5208" height="14.041" transform="rotate(129.869 142.202 74.6709)" fill="#D9D9D9"/>
		<rect id="Rectangle 142" x="105.964" y="57.4736" width="10.5208" height="14.041" transform="rotate(129.869 105.964 57.4736)" fill="#D9D9D9"/>
		<rect id="Rectangle 164" x="114.563" y="47.0322" width="10.5208" height="14.041" transform="rotate(129.869 114.563 47.0322)" fill="#D9D9D9"/>
		<rect id="Dansby Swanson" x="124.39" y="37.8193" width="10.5208" height="14.041" transform="rotate(129.869 124.39 37.8193)" fill="#18A1CD"/>
		<rect id="Rectangle 119" x="129.917" y="59.9302" width="10.5208" height="14.041" transform="rotate(129.869 129.917 59.9302)" fill="#D9D9D9"/>
		<rect id="Rectangle 143" x="93.6807" y="42.7329" width="10.5208" height="14.041" transform="rotate(129.869 93.6807 42.7329)" fill="#D9D9D9"/>
		<rect id="Rectangle 162" x="111.492" y="22.4646" width="10.5208" height="14.041" transform="rotate(129.869 111.492 22.4646)" fill="#D9D9D9"/>
		<rect id="Aaron Judge" x="107.807" y="113.979" width="10.5208" height="14.041" transform="rotate(129.869 107.807 113.979)" fill="#18A1CD"/>
		<rect id="Rectangle 145" x="71.5698" y="96.7817" width="10.5208" height="14.041" transform="rotate(129.869 71.5698 96.7817)" fill="#D9D9D9"/>
		<rect id="Rectangle 120" x="95.5234" y="99.2385" width="10.5208" height="14.041" transform="rotate(129.869 95.5234 99.2385)" fill="#D9D9D9"/>
		<rect id="Andrew Benintendi" x="59.2861" y="82.041" width="10.5208" height="14.041" transform="rotate(129.869 59.2861 82.041)" fill="#18A1CD"/>
		<rect id="Rectangle 110" x="133.603" y="84.498" width="10.5208" height="14.041" transform="rotate(129.869 133.603 84.498)" fill="#D9D9D9"/>
		<rect id="Rafael Devers" x="97.3657" y="67.3005" width="10.5208" height="14.041" transform="rotate(129.869 97.3657 67.3005)" fill="#18A1CD"/>
		<rect id="Anthony Rendon" x="121.319" y="69.7573" width="10.5208" height="14.041" transform="rotate(129.869 121.319 69.7573)" fill="#18A1CD"/>
		<rect id="Jose Ramirez" x="85.082" y="52.5598" width="10.5208" height="14.041" transform="rotate(129.869 85.082 52.5598)" fill="#18A1CD"/>
		<rect id="Rectangle 163" x="102.893" y="32.2915" width="10.5208" height="14.041" transform="rotate(129.869 102.893 32.2915)" fill="#D9D9D9"/>
		<rect id="Rectangle 114" x="99.208" y="123.806" width="10.5208" height="14.041" transform="rotate(129.869 99.208 123.806)" fill="#D9D9D9"/>
		<rect id="Rectangle 149" x="62.9712" y="106.609" width="10.5208" height="14.041" transform="rotate(129.869 62.9712 106.609)" fill="#D9D9D9"/>
		<rect id="Rectangle 122" x="86.9243" y="109.065" width="10.5208" height="14.041" transform="rotate(129.869 86.9243 109.065)" fill="#D9D9D9"/>
		<rect id="Rectangle 150" x="50.687" y="91.8682" width="10.5208" height="14.041" transform="rotate(129.869 50.687 91.8682)" fill="#D9D9D9"/>
		<rect id="Rectangle 111" x="125.004" y="94.9392" width="10.5208" height="14.041" transform="rotate(129.869 125.004 94.9392)" fill="#D9D9D9"/>
		<rect id="Kris Bryant" x="88.7671" y="77.7419" width="10.5208" height="14.041" transform="rotate(129.869 88.7671 77.7419)" fill="#18A1CD"/>
		<rect id="Rectangle 123" x="112.721" y="80.1985" width="10.5208" height="14.041" transform="rotate(129.869 112.721 80.1985)" fill="#D9D9D9"/>
		<rect id="Zach Eflin" x="76.4834" y="63.0012" width="10.5208" height="14.041" transform="rotate(129.869 76.4834 63.0012)" fill="#18A1CD"/>
		<rect id="Rectangle 115" x="89.9956" y="133.633" width="10.5208" height="14.041" transform="rotate(129.869 89.9956 133.633)" fill="#D9D9D9"/>
		<rect id="Rectangle 153" x="53.7583" y="116.436" width="10.5208" height="14.041" transform="rotate(129.869 53.7583 116.436)" fill="#D9D9D9"/>
		<rect id="Rectangle 124" x="77.7114" y="118.893" width="10.5208" height="14.041" transform="rotate(129.869 77.7114 118.893)" fill="#D9D9D9"/>
		<rect id="Rectangle 154" x="41.4741" y="101.695" width="10.5208" height="14.041" transform="rotate(129.869 41.4741 101.695)" fill="#D9D9D9"/>
		<rect id="Rectangle 117" x="74.0264" y="153.288" width="10.5208" height="14.041" transform="rotate(129.869 74.0264 153.288)" fill="#D9D9D9"/>
		<rect id="Rectangle 155" x="37.7891" y="136.09" width="10.5208" height="14.041" transform="rotate(129.869 37.7891 136.09)" fill="#D9D9D9"/>
		<rect id="Rectangle 125" x="61.7427" y="138.547" width="10.5208" height="14.041" transform="rotate(129.869 61.7427 138.547)" fill="#D9D9D9"/>
		<rect id="Ha-seong Kim" x="25.5054" y="121.349" width="10.5208" height="14.041" transform="rotate(129.869 25.5054 121.349)" fill="#18A1CD"/>
		<rect id="Jacob deGrom" x="116.405" y="104.152" width="10.5208" height="14.041" transform="rotate(129.869 116.405 104.152)" fill="#18A1CD"/>
		<rect id="Rectangle 157" x="80.1685" y="86.9546" width="10.5208" height="14.041" transform="rotate(129.869 80.1685 86.9546)" fill="#D9D9D9"/>
		<rect id="Carlos Correa" x="104.122" y="89.4114" width="10.5208" height="14.041" transform="rotate(129.869 104.122 89.4114)" fill="#18A1CD"/>
		<rect id="Sandy Alcantara" x="67.8843" y="72.2141" width="10.5208" height="14.041" transform="rotate(129.869 67.8843 72.2141)" fill="#18A1CD"/>
		<rect id="Rectangle 116" x="82.0107" y="143.46" width="10.5208" height="14.041" transform="rotate(129.869 82.0107 143.46)" fill="#D9D9D9"/>
		<rect id="Rectangle 159" x="45.7739" y="126.263" width="10.5208" height="14.041" transform="rotate(129.869 45.7739 126.263)" fill="#D9D9D9"/>
		<rect id="Rectangle 127" x="69.7271" y="128.72" width="10.5208" height="14.041" transform="rotate(129.869 69.7271 128.72)" fill="#D9D9D9"/>
		<rect id="Mitch Keller" x="33.4897" y="111.522" width="10.5208" height="14.041" transform="rotate(129.869 33.4897 111.522)" fill="#18A1CD"/>
		<rect id="Rectangle 118" x="66.042" y="163.115" width="10.5208" height="14.041" transform="rotate(129.869 66.042 163.115)" fill="#D9D9D9"/>
		<rect id="Rectangle 128" x="53.7583" y="148.374" width="10.5208" height="14.041" transform="rotate(129.869 53.7583 148.374)" fill="#D9D9D9"/>
		<rect id="Nathaniel Lowe" x="17.521" y="131.177" width="10.5208" height="14.041" transform="rotate(129.869 17.521 131.177)" fill="#18A1CD"/>
		<rect id="Zach Wheeler" x="178.842" y="84.7102" width="10.5208" height="14.041" transform="rotate(48.7317 178.842 84.7102)" fill="#18A1CD"/>
		<rect id="Xander Bogaerts" x="202.795" y="55.6963" width="10.5208" height="14.041" transform="rotate(48.7317 202.795 55.6963)" fill="#18A1CD"/>
		<rect id="Rectangle 130" x="192.638" y="71.3447" width="10.5208" height="14.041" transform="rotate(48.7317 192.638 71.3447)" fill="#D9D9D9"/>
		<rect id="Rectangle 169" x="216.592" y="42.3308" width="10.5208" height="14.041" transform="rotate(48.7317 216.592 42.3308)" fill="#D9D9D9"/>
		<rect id="Rectangle 102" x="187.441" y="94.5371" width="10.5208" height="14.041" transform="rotate(48.7317 187.441 94.5371)" fill="#D9D9D9"/>
		<rect id="Matt Chapman" x="211.395" y="65.5232" width="10.5208" height="14.041" transform="rotate(48.7317 211.395 65.5232)" fill="#18A1CD"/>
		<rect id="Tyler Glasnow" x="201.237" y="81.1719" width="10.5208" height="14.041" transform="rotate(48.7317 201.237 81.1719)" fill="#18A1CD"/>
		<rect id="Rectangle 171" x="225.19" y="52.158" width="10.5208" height="14.041" transform="rotate(48.7317 225.19 52.158)" fill="#D9D9D9"/>
		<rect id="Rectangle 106" x="221.835" y="133.845" width="10.5208" height="14.041" transform="rotate(48.7317 221.835 133.845)" fill="#D9D9D9"/>
		<rect id="Christian Yelich" x="245.789" y="104.832" width="10.5208" height="14.041" transform="rotate(48.7317 245.789 104.832)" fill="#18A1CD"/>
		<rect id="Rectangle 132" x="235.631" y="120.48" width="10.5208" height="14.041" transform="rotate(48.7317 235.631 120.48)" fill="#D9D9D9"/>
		<rect id="Rectangle 173" x="259.585" y="91.4663" width="10.5208" height="14.041" transform="rotate(48.7317 259.585 91.4663)" fill="#D9D9D9"/>
		<rect id="Rectangle 103" x="196.04" y="104.979" width="10.5208" height="14.041" transform="rotate(48.7317 196.04 104.979)" fill="#D9D9D9"/>
		<rect id="Jack Flaherty" x="219.993" y="75.9646" width="10.5208" height="14.041" transform="rotate(48.7317 219.993 75.9646)" fill="#18A1CD"/>
		<rect id="Rectangle 133" x="209.835" y="91.6133" width="10.5208" height="14.041" transform="rotate(48.7317 209.835 91.6133)" fill="#D9D9D9"/>
		<rect id="Rectangle 175" x="233.789" y="62.5994" width="10.5208" height="14.041" transform="rotate(48.7317 233.789 62.5994)" fill="#D9D9D9"/>
		<rect id="Rectangle 107" x="230.435" y="143.672" width="10.5208" height="14.041" transform="rotate(48.7317 230.435 143.672)" fill="#D9D9D9"/>
		<rect id="Rectangle 176" x="254.388" y="114.658" width="10.5208" height="14.041" transform="rotate(48.7317 254.388 114.658)" fill="#D9D9D9"/>
		<rect id="Rectangle 185" x="263.601" y="125.247" width="10.5208" height="14.041" transform="rotate(48.7317 263.601 125.247)" fill="#D9D9D9"/>
		<rect id="Rectangle 134" x="244.23" y="130.307" width="10.5208" height="14.041" transform="rotate(48.7317 244.23 130.307)" fill="#D9D9D9"/>
		<rect id="Rectangle 177" x="268.184" y="101.293" width="10.5208" height="14.041" transform="rotate(48.7317 268.184 101.293)" fill="#D9D9D9"/>
		<rect id="Rectangle 104" x="204.638" y="114.805" width="10.5208" height="14.041" transform="rotate(48.7317 204.638 114.805)" fill="#D9D9D9"/>
		<rect id="Rectangle 178" x="228.592" y="85.7915" width="10.5208" height="14.041" transform="rotate(48.7317 228.592 85.7915)" fill="#D9D9D9"/>
		<rect id="Nolan Arenado" x="218.435" y="101.44" width="10.5208" height="14.041" transform="rotate(48.7317 218.435 101.44)" fill="#18A1CD"/>
		<rect id="Rectangle 179" x="242.388" y="72.4263" width="10.5208" height="14.041" transform="rotate(48.7317 242.388 72.4263)" fill="#D9D9D9"/>
		<rect id="Rectangle 108" x="239.033" y="153.5" width="10.5208" height="14.041" transform="rotate(48.7317 239.033 153.5)" fill="#D9D9D9"/>
		<rect id="Rectangle 136" x="252.829" y="140.134" width="10.5208" height="14.041" transform="rotate(48.7317 252.829 140.134)" fill="#D9D9D9"/>
		<rect id="Rectangle 180" x="277.113" y="112.349" width="10.5208" height="14.041" transform="rotate(48.7317 277.113 112.349)" fill="#D9D9D9"/>
		<rect id="Rectangle 105" x="213.237" y="124.019" width="10.5208" height="14.041" transform="rotate(48.7317 213.237 124.019)" fill="#D9D9D9"/>
		<rect id="Luis Castillo" x="237.19" y="95.0044" width="10.5208" height="14.041" transform="rotate(48.7317 237.19 95.0044)" fill="#18A1CD"/>
		<rect id="Corbin Burnes" x="227.033" y="110.653" width="10.5208" height="14.041" transform="rotate(48.7317 227.033 110.653)" fill="#18A1CD"/>
		<rect id="Rectangle 182" x="250.987" y="81.6392" width="10.5208" height="14.041" transform="rotate(48.7317 250.987 81.6392)" fill="#D9D9D9"/>
		<rect id="Rectangle 100" x="170.243" y="75.4973" width="10.5208" height="14.041" transform="rotate(48.7317 170.243 75.4973)" fill="#D9D9D9"/>
		<rect id="Rectangle 183" x="194.197" y="46.4832" width="10.5208" height="14.041" transform="rotate(48.7317 194.197 46.4832)" fill="#D9D9D9"/>
		<rect id="Jose Altuve" x="184.04" y="62.1321" width="10.5208" height="14.041" transform="rotate(48.7317 184.04 62.1321)" fill="#18A1CD"/>
		<rect id="Austin Riley" x="207.993" y="33.1182" width="10.5208" height="14.041" transform="rotate(48.7317 207.993 33.1182)" fill="#18A1CD"/>
		<rect id="Rectangle 186" x="199.11" y="23.905" width="10.5208" height="14.041" transform="rotate(48.7317 199.11 23.905)" fill="#D9D9D9"/>
		<path id="Rectangle 187" d="M189.034 17.6369C192.894 18.8077 195.365 20.5783 197.286 23.182L186.126 31.6516C184.013 29.6991 183.199 28.4429 179.185 27.1972L189.034 17.6369Z" fill="#D9D9D9"/>
		<path id="Juan Soto" d="M135.744 65.4962L147.721 72.2522L158.461 63.5206C158.461 63.5206 154.17 57.8188 144.65 59.0472C135.13 60.2755 135.744 65.4962 135.744 65.4962Z" fill="#18A1CD"/>
		<path id="Vector 44" d="M142.274 39.4028L146.726 52.8283C149.243 52.6391 150.686 52.8803 153.309 53.6735L161.768 41.9059C154.487 38.3443 150.178 38.1089 142.274 39.4028Z" fill="#D9D9D9"/>
		<path id="Vector 48" d="M134.784 19.4516L139.356 31.9456C141.868 31.7934 143.311 32.0306 145.938 32.7908L154.278 21.9547C146.973 18.5835 142.667 18.325 134.784 19.4516Z" fill="#D9D9D9"/>
		<path id="Vector 47" d="M165.41 26.362L165.41 38.9529C167.9 39.3202 171.172 42.6465 173.587 43.93L183.336 35.2679C176.879 30.4681 175.351 28.2045 165.41 26.362Z" fill="#D9D9D9"/>
		<path id="Vector 45" d="M120.724 47.9323L132.399 57.8975C135.479 54.6622 137.945 53.5754 143.721 52.7723L138.39 39.3179C130.231 40.0966 126.515 42.2959 120.724 47.9323Z" fill="#D9D9D9"/>
		<path id="Vladimir Guerrero Jr." d="M116.082 26.3621L127.445 36.4962C130.14 34.5168 131.979 33.9172 136.043 34.0395L131.744 19.606C124.14 20.745 120.778 22.2917 116.082 26.3621Z" fill="#18A1CD"/>
		<path id="Vector 49" d="M149.863 33.4691L157.687 23.291C160.067 24.3105 160.878 24.4921 161.756 25.1336C162.634 25.7751 161.756 38.0316 161.756 38.0316C158.47 35.1885 155.916 34.1495 149.863 33.4691Z" fill="#D9D9D9"/>
		<path id="Salvador Perez" d="M105.641 12.2355L115.161 21.1413C119.522 18.0686 122.612 16.8557 129.287 15.6136L125.295 4.55811C116.445 5.881 111.351 6.89524 105.641 12.2355Z" fill="#18A1CD"/>
		<path id="Luis Severino" d="M128.98 3.6368L132.518 14.0149C138.518 12.9689 142.348 12.9527 147.859 15.3877L150.477 4.55814C144.548 1.84274 138.319 3.02767 128.98 3.6368Z" fill="#18A1CD"/>
		<path id="Vector 53" d="M174.123 10.0859L166.446 20.2201C172.281 22.0627 174.123 23.2911 177.194 25.4407L186.407 16.535C183.429 14.1653 177.808 10.7001 174.123 10.0859Z" fill="#D9D9D9"/>
		<path id="Nick Martinez" d="M163.178 18.9917C158.757 17.1947 156.239 16.6615 151.705 16.1636L154.486 5.47949C160.961 5.63331 164.33 6.66593 170.131 9.25034L163.178 18.9917Z" fill="#18A1CD"/>
		</g>
		</svg>		